<svg xmlns="http://www.w3.org/2000/svg" version="1.1" xmlns:xlink="http://www.w3.org/1999/xlink" xmlns:svgjs="http://svgjs.com/svgjs" width="1440" height="560" preserveAspectRatio="none" viewBox="0 0 1440 560"><g mask="url(&quot;#SvgjsMask1049&quot;)" fill="none"><rect width="1440" height="560" x="0" y="0" fill="rgba(243, 236, 234, 1)"></rect><path d="M0,475.681C93.313,491.993,201.239,487.022,274.034,426.406C345.887,366.574,348.898,259.814,368.922,168.481C385.191,94.274,373.807,21.196,379.481,-54.561C387.114,-156.463,476.978,-278.14,408.024,-353.555C338.31,-429.801,206.789,-341.897,104.369,-355.449C23.784,-366.112,-44.23,-436.824,-124.502,-424.016C-207.702,-410.74,-279.488,-353.401,-330.188,-286.11C-379.142,-221.137,-381.789,-136.746,-400.581,-57.595C-421.45,30.301,-484.097,121.766,-446.535,203.926C-408.972,286.088,-295.854,293.309,-218.681,340.275C-143.927,385.769,-86.202,460.612,0,475.681" fill="#b68c80"></path><path d="M1440 974.875C1516.924 975.197 1575.551 912.4929999999999 1644.096 877.579 1721.7069999999999 838.047 1830.407 833.98 1869.4569999999999 756.126 1908.393 678.5 1862.8229999999999 584.74 1831.6309999999999 503.692 1805.394 435.52 1758.308 380.403 1705.452 329.985 1656.814 283.591 1601.969 246.60899999999998 1538.604 224.185 1472.416 200.762 1401.203 178.664 1333.847 198.47699999999998 1266.502 218.28699999999998 1222.938 279.059 1175.657 330.946 1127.18 384.14599999999996 1081.3899999999999 437.71500000000003 1054.877 504.628 1022.547 586.22 967.788 679.206 1006.442 757.999 1045.243 837.0930000000001 1158.21 836.46 1237.001 875.873 1305.724 910.25 1363.16 974.553 1440 974.875" fill="#ffffff"></path></g><defs><mask id="SvgjsMask1049"><rect width="1440" height="560" fill="#ffffff"></rect></mask></defs></svg>