<svg xmlns="http://www.w3.org/2000/svg" version="1.1" xmlns:xlink="http://www.w3.org/1999/xlink" xmlns:svgjs="http://svgjs.com/svgjs" width="1440" height="560" preserveAspectRatio="none" viewBox="0 0 1440 560"><g mask="url(&quot;#SvgjsMask1003&quot;)" fill="none"><path d="M426 76L425 -315" stroke-width="10" stroke="url(#SvgjsLinearGradient1004)" stroke-linecap="round" class="Down"></path><path d="M417 87L416 -269" stroke-width="6" stroke="url(#SvgjsLinearGradient1004)" stroke-linecap="round" class="Down"></path><path d="M1141 284L1140 24" stroke-width="10" stroke="url(#SvgjsLinearGradient1004)" stroke-linecap="round" class="Down"></path><path d="M388 390L387 610" stroke-width="6" stroke="url(#SvgjsLinearGradient1005)" stroke-linecap="round" class="Up"></path><path d="M625 253L624 -114" stroke-width="8" stroke="url(#SvgjsLinearGradient1004)" stroke-linecap="round" class="Down"></path><path d="M1324 49L1323 451" stroke-width="8" stroke="url(#SvgjsLinearGradient1005)" stroke-linecap="round" class="Up"></path><path d="M834 143L833 393" stroke-width="8" stroke="url(#SvgjsLinearGradient1004)" stroke-linecap="round" class="Down"></path><path d="M1105 144L1104 504" stroke-width="6" stroke="url(#SvgjsLinearGradient1004)" stroke-linecap="round" class="Down"></path><path d="M821 143L820 -73" stroke-width="6" stroke="url(#SvgjsLinearGradient1005)" stroke-linecap="round" class="Up"></path><path d="M924 533L923 759" stroke-width="6" stroke="url(#SvgjsLinearGradient1005)" stroke-linecap="round" class="Up"></path><path d="M1075 17L1074 232" stroke-width="6" stroke="url(#SvgjsLinearGradient1005)" stroke-linecap="round" class="Up"></path><path d="M128 306L127 606" stroke-width="6" stroke="url(#SvgjsLinearGradient1004)" stroke-linecap="round" class="Down"></path><path d="M37 223L36 -43" stroke-width="8" stroke="url(#SvgjsLinearGradient1004)" stroke-linecap="round" class="Down"></path><path d="M1299 381L1298 709" stroke-width="10" stroke="url(#SvgjsLinearGradient1005)" stroke-linecap="round" class="Up"></path><path d="M1171 357L1170 726" stroke-width="6" stroke="url(#SvgjsLinearGradient1005)" stroke-linecap="round" class="Up"></path><path d="M1130 277L1129 90" stroke-width="10" stroke="url(#SvgjsLinearGradient1005)" stroke-linecap="round" class="Up"></path><path d="M1308 520L1307 699" stroke-width="8" stroke="url(#SvgjsLinearGradient1005)" stroke-linecap="round" class="Up"></path><path d="M382 50L381 358" stroke-width="6" stroke="url(#SvgjsLinearGradient1005)" stroke-linecap="round" class="Up"></path><path d="M465 323L464 152" stroke-width="10" stroke="url(#SvgjsLinearGradient1005)" stroke-linecap="round" class="Up"></path><path d="M296 411L295 634" stroke-width="6" stroke="url(#SvgjsLinearGradient1004)" stroke-linecap="round" class="Down"></path><path d="M365 85L364 -93" stroke-width="8" stroke="url(#SvgjsLinearGradient1004)" stroke-linecap="round" class="Down"></path><path d="M1009 432L1008 615" stroke-width="6" stroke="url(#SvgjsLinearGradient1005)" stroke-linecap="round" class="Up"></path><path d="M101 195L100 -126" stroke-width="6" stroke="url(#SvgjsLinearGradient1005)" stroke-linecap="round" class="Up"></path><path d="M326 133L325 -225" stroke-width="6" stroke="url(#SvgjsLinearGradient1004)" stroke-linecap="round" class="Down"></path><path d="M1384 70L1383 268" stroke-width="8" stroke="url(#SvgjsLinearGradient1004)" stroke-linecap="round" class="Down"></path><path d="M382 216L381 -150" stroke-width="10" stroke="url(#SvgjsLinearGradient1005)" stroke-linecap="round" class="Up"></path><path d="M607 280L606 449" stroke-width="6" stroke="url(#SvgjsLinearGradient1004)" stroke-linecap="round" class="Down"></path><path d="M573 36L572 422" stroke-width="6" stroke="url(#SvgjsLinearGradient1004)" stroke-linecap="round" class="Down"></path><path d="M337 50L336 243" stroke-width="8" stroke="url(#SvgjsLinearGradient1005)" stroke-linecap="round" class="Up"></path><path d="M588 245L587 388" stroke-width="8" stroke="url(#SvgjsLinearGradient1005)" stroke-linecap="round" class="Up"></path><path d="M409 323L408 589" stroke-width="10" stroke="url(#SvgjsLinearGradient1004)" stroke-linecap="round" class="Down"></path><path d="M640 387L639 590" stroke-width="8" stroke="url(#SvgjsLinearGradient1005)" stroke-linecap="round" class="Up"></path><path d="M1146 91L1145 -85" stroke-width="8" stroke="url(#SvgjsLinearGradient1004)" stroke-linecap="round" class="Down"></path><path d="M1075 359L1074 172" stroke-width="6" stroke="url(#SvgjsLinearGradient1005)" stroke-linecap="round" class="Up"></path><path d="M1218 137L1217 -231" stroke-width="10" stroke="url(#SvgjsLinearGradient1005)" stroke-linecap="round" class="Up"></path><path d="M632 338L631 543" stroke-width="10" stroke="url(#SvgjsLinearGradient1005)" stroke-linecap="round" class="Up"></path></g><defs><mask id="SvgjsMask1003"><rect width="1440" height="560" fill="#ffffff"></rect></mask><linearGradient x1="0%" y1="0%" x2="0%" y2="100%" id="SvgjsLinearGradient1004"><stop stop-color="rgba(28, 83, 142, 0)" offset="0"></stop><stop stop-color="#1c538e" offset="1"></stop></linearGradient><linearGradient x1="0%" y1="100%" x2="0%" y2="0%" id="SvgjsLinearGradient1005"><stop stop-color="rgba(28, 83, 142, 0)" offset="0"></stop><stop stop-color="#1c538e" offset="1"></stop></linearGradient></defs></svg>